<svg xmlns="http://www.w3.org/2000/svg" xmlns:xlink="http://www.w3.org/1999/xlink" viewBox="0 0 1440 316">
  <defs>
    <rect id="a" width="1440" height="316"/>
  </defs>
  <g fill="none" fill-rule="evenodd">
    <mask id="b" fill="white">
      <use xlink:href="#a"/>
    </mask>
    <use fill="#1D7CF8" xlink:href="#a"/>
    <g stroke="#1256AE" stroke-linejoin="round" stroke-width="3" mask="url(#b)" opacity=".3">
      <g transform="translate(-175 -501)">
        <path d="M537.61 184C527.87 301.333333 540.536667 434.333333 575.61 583M590.175425 112C580.435425 229.333333 593.102092 362.333333 628.175425 511M863.740851 778C854.000851 895.333333 866.667518 1028.33333 901.740851 1177M916.740851 722C907.000851 839.333333 919.667518 972.333333 954.740851 1121M476.5 282.5C356.833333 443.5 293.333333 635 286 857M493 384C391.666667 536 335.666667 712.333333 325 913M502 484C428 613.333333 380.333333 778.333333 359 979M513 557C539 651 560 755.333333 576 870M477 645C503 739 524 843.333333 540 958M445 741C471 835 492 939.333333 508 1054M587 645C671.391808 579.666667 734.391808 508.666667 776 432"/>
        <path d="M603,707 C687.391808,641.666667 750.391808,570.666667 792,494" transform="rotate(4 697.5 600.5)"/>
        <path d="M619,771 C703.391808,705.666667 766.391808,634.666667 808,558" transform="rotate(7 713.5 664.5)"/>
        <path d="M635,835 C719.391808,769.666667 782.391808,698.666667 824,622" transform="rotate(9 729.5 728.5)"/>
        <path d="M643,899 C727.391808,833.666667 790.391808,762.666667 832,686" transform="rotate(9 737.5 792.5)"/>
        <path d="M0,543 C84.3918085,477.666667 147.391808,406.666667 189,330"/>
        <path d="M16,605 C100.391808,539.666667 163.391808,468.666667 205,392" transform="rotate(4 110.5 498.5)"/>
        <path d="M32,669 C116.391808,603.666667 179.391808,532.666667 221,456" transform="rotate(7 126.5 562.5)"/>
        <path d="M48,733 C132.391808,667.666667 195.391808,596.666667 237,520" transform="rotate(9 142.5 626.5)"/>
        <path d="M56,797 C140.391808,731.666667 203.391808,660.666667 245,584" transform="rotate(9 150.5 690.5)"/>
        <path d="M258.5 745C234.431823 735.333333 214.664779 727.666667 199.198867 722M250.5 785C210.431823 770 182.664779 759.666667 167.198867 754M244.5 829C191.965911 810.666667 157.965911 798.666667 142.5 793M1479.61 184C1469.87 301.333333 1482.53667 434.333333 1517.61 583M1532.17543 112C1522.43543 229.333333 1535.10209 362.333333 1570.17543 511M1418.5 282.5C1298.83333 443.5 1235.33333 635 1228 857M1435 384C1333.66667 536 1277.66667 712.333333 1267 913M1444 484C1370 613.333333 1322.33333 778.333333 1301 979M1455 557C1481 651 1502 755.333333 1518 870M1419 645C1445 739 1466 843.333333 1482 958M1387 741C1413 835 1434 939.333333 1450 1054M1529 645C1613.39181 579.666667 1676.39181 508.666667 1718 432"/>
        <path d="M1545,707 C1629.39181,641.666667 1692.39181,570.666667 1734,494" transform="rotate(4 1639.5 600.5)"/>
        <path d="M1561,771 C1645.39181,705.666667 1708.39181,634.666667 1750,558" transform="rotate(7 1655.5 664.5)"/>
        <path d="M1577,835 C1661.39181,769.666667 1724.39181,698.666667 1766,622" transform="rotate(9 1671.5 728.5)"/>
        <path d="M1585,899 C1669.39181,833.666667 1732.39181,762.666667 1774,686" transform="rotate(9 1679.5 792.5)"/>
        <path d="M942,543 C1026.39181,477.666667 1089.39181,406.666667 1131,330"/>
        <path d="M958,605 C1042.39181,539.666667 1105.39181,468.666667 1147,392" transform="rotate(4 1052.5 498.5)"/>
        <path d="M974,669 C1058.39181,603.666667 1121.39181,532.666667 1163,456" transform="rotate(7 1068.5 562.5)"/>
        <path d="M990,733 C1074.39181,667.666667 1137.39181,596.666667 1179,520" transform="rotate(9 1084.5 626.5)"/>
        <path d="M998,797 C1082.39181,731.666667 1145.39181,660.666667 1187,584" transform="rotate(9 1092.5 690.5)"/>
        <path d="M1200.5 745C1176.43182 735.333333 1156.66478 727.666667 1141.19887 722M1192.5 785C1152.43182 770 1124.66478 759.666667 1109.19887 754M1186.5 829C1133.96591 810.666667 1099.96591 798.666667 1084.5 793"/>
      </g>
    </g>
    <circle cx="376" cy="330" r="54" fill="#02B3E4" mask="url(#b)"/>
  </g>
</svg>